<?xml version="1.0" encoding="iso-8859-1"?>
<!-- Generator: Adobe Illustrator 16.0.0, SVG Export Plug-In . SVG Version: 6.00 Build 0)  -->
<!DOCTYPE svg PUBLIC "-//W3C//DTD SVG 1.1//EN" "http://www.w3.org/Graphics/SVG/1.1/DTD/svg11.dtd">
<svg version="1.1" id="Capa_1" xmlns="http://www.w3.org/2000/svg" xmlns:xlink="http://www.w3.org/1999/xlink" x="0px" y="0px"
	 width="31.416px" height="31.416px" viewBox="0 0 31.416 31.416" style="enable-background:new 0 0 31.416 31.416;"
	 xml:space="preserve">
<g>
	<path d="M31.23,16.893c0-1.852-1.258-3.479-3.152-4.422l3.338-1.49l-0.814-1.825l-5.576,2.487c-0.11-0.011-0.223-0.022-0.336-0.027
		c-0.235-0.562-0.561-1.092-0.959-1.581l5.437-4.228l-1.229-1.578l-5.682,4.418c-1.764-1.303-4.18-2.097-6.793-2.097
		c-4.254,0-7.992,2.099-9.234,5.083C2.735,11.903,0,14.159,0,16.893c0,0.582,0.14,1.152,0.377,1.695H0.041v2h2.045
		c0.22,3.686,2.638,6.6,5.584,6.6h16.051c2.946,0,5.366-2.914,5.586-6.6h2.043v-2h-0.48C31.105,18.049,31.23,17.479,31.23,16.893z
		 M29.23,16.893c0,0.744-0.392,1.322-0.734,1.695H14.359l10.985-4.898C27.535,14.02,29.23,15.35,29.23,16.893z M22.914,12.583
		l-5.773,2.576l5.019-3.903C22.492,11.666,22.748,12.108,22.914,12.583z M1.998,16.893c0-1.781,2.262-3.287,4.951-3.287h0.766
		l0.199-0.738c0.678-2.501,3.852-4.316,7.549-4.316c1.967,0,3.78,0.518,5.153,1.373L9.507,18.562l0.021,0.026H2.462l0.152-0.127
		C2.207,17.969,1.998,17.438,1.998,16.893z M23.719,25.186H7.669c-1.857,0-3.375-2.021-3.566-4.598h23.186
		C27.096,23.164,25.578,25.186,23.719,25.186z"/>
</g>
<g>
</g>
<g>
</g>
<g>
</g>
<g>
</g>
<g>
</g>
<g>
</g>
<g>
</g>
<g>
</g>
<g>
</g>
<g>
</g>
<g>
</g>
<g>
</g>
<g>
</g>
<g>
</g>
<g>
</g>
</svg>
