<?xml version="1.0" encoding="iso-8859-1"?>
<!-- Generator: Adobe Illustrator 16.0.0, SVG Export Plug-In . SVG Version: 6.00 Build 0)  -->
<!DOCTYPE svg PUBLIC "-//W3C//DTD SVG 1.1//EN" "http://www.w3.org/Graphics/SVG/1.1/DTD/svg11.dtd">
<svg version="1.1" id="Capa_1" xmlns="http://www.w3.org/2000/svg" xmlns:xlink="http://www.w3.org/1999/xlink" x="0px" y="0px"
	 width="349.4px" height="349.401px" viewBox="0 0 349.4 349.401" style="enable-background:new 0 0 349.4 349.401;"
	 xml:space="preserve">
<g>
	<g>
		<path d="M97.573,123.435l6.945,113.85l22.753-22.746v-4.052c0-1.477,0.599-2.81,1.56-3.781l-28.641-83.263h-2.617V123.435z"/>
		<path d="M155.343,246.114v3.969c0,0.293,0.058,0.571,0.097,0.859l0.01,0.096l2.005,5.827c0.876,1.344,1.93,2.499,3.181,3.39
			c2.145,1.524,4.641,2.332,7.216,2.332h83.815c6.887,0,12.504-5.606,12.504-12.499v-3.974H165.96H155.343z"/>
		<polygon points="281.483,235.363 281.483,215.855 269.537,215.855 167.792,215.855 149.968,215.855 141.146,215.855 
			138.023,218.984 138.023,235.363 146.233,235.363 149.968,235.363 165.96,235.363 269.537,235.363 		"/>
		<path d="M86.495,118.382c-0.092-1.478,0.435-2.93,1.452-4.008c1.016-1.071,2.436-1.69,3.919-1.69h4.626l-17.533-50.98
			c-0.967-2.811,0.526-5.869,3.334-6.832c2.811-0.966,5.863,0.528,6.832,3.339l18.732,54.48h65.574c1.48,0,2.897,0.617,3.918,1.688
			c1.01,1.078,1.538,2.53,1.451,4.01l-2.897,47.518L280.99,60.825c-27.873-26.029-65.245-42.006-106.285-42.006
			c-85.954,0-155.886,69.936-155.886,155.888c0,41.055,15.974,78.42,41.997,106.289l33.552-33.555L86.495,118.382z"/>
		<path d="M145.033,196.77c1.791-9.312,9.121-16.651,18.431-18.436l0.974-0.974l3.284-53.932h-56.161l27.339,79.477L145.033,196.77z
			 M147.281,135.036c0.328-2.95,2.966-5.079,5.934-4.756c2.95,0.339,5.073,2.993,4.751,5.939l-2.654,23.924
			c-0.308,2.753-2.636,4.779-5.339,4.779c-0.193,0-0.398-0.01-0.595-0.031c-2.954-0.328-5.077-2.984-4.754-5.934L147.281,135.036z"
			/>
		<path d="M146.916,259.257l-1.809-5.254l-2.708-7.895h-9.746c-2.971,0-5.375-2.404-5.375-5.376V229.73l-21.882,21.874l0.467,7.643
			h41.054V259.257z"/>
		<path d="M174.7,0C78.216,0,0,78.219,0,174.701c0,96.484,78.215,174.7,174.7,174.7c96.483,0,174.7-78.216,174.7-174.7
			C349.4,78.219,271.184,0,174.7,0z M174.7,341.338c-91.888,0-166.637-74.753-166.637-166.638
			C8.063,82.815,82.812,8.063,174.7,8.063c91.887,0,166.637,74.751,166.637,166.637C341.337,266.585,266.582,341.338,174.7,341.338z
			"/>
		<path d="M288.581,68.418L179.113,177.893h72.544c12.829,0,23.254,10.435,23.254,23.253v3.96h11.948
			c2.971,0,5.375,2.402,5.375,5.374v30.259c0,2.971-2.404,5.375-5.375,5.375h-11.948v3.969c0,12.829-10.425,23.255-23.254,23.255
			h-83.81c-4.173,0-8.2-1.191-11.79-3.329h-55.252c-2.838,0-5.195-2.204-5.365-5.049l-0.195-3.191l-26.827,26.824
			c27.872,26.026,65.24,41.994,106.282,41.994c85.953,0,155.888-69.932,155.888-155.886
			C330.588,133.649,314.607,96.285,288.581,68.418z"/>
		<path d="M251.657,188.644h-82.199h-1.097l-13.018,13.017v3.45h12.449h96.369v-3.958
			C264.161,194.259,258.55,188.644,251.657,188.644z"/>
	</g>
</g>
<g>
</g>
<g>
</g>
<g>
</g>
<g>
</g>
<g>
</g>
<g>
</g>
<g>
</g>
<g>
</g>
<g>
</g>
<g>
</g>
<g>
</g>
<g>
</g>
<g>
</g>
<g>
</g>
<g>
</g>
</svg>
