<svg width="107" height="94" viewBox="0 0 107 94" fill="none" xmlns="http://www.w3.org/2000/svg">
<g clip-path="url(#clip0_3_1606)">
<path d="M45.3255 24.421C44.9176 23.7699 44.2409 23.2131 43.3773 22.8181C42.5137 22.4231 41.5002 22.2069 40.4595 22.1955H23.235C22.7825 22.1781 22.3306 22.2355 21.9181 22.3631C21.5056 22.4906 21.1447 22.6843 20.8666 22.9276C20.6364 23.2045 20.5154 23.5172 20.5154 23.8354C20.5154 24.1535 20.6364 24.4662 20.8666 24.7431L32.6224 38.5939L14.1059 60.8195C13.8629 61.0934 13.7344 61.4073 13.7344 61.7273C13.7344 62.0472 13.8629 62.3611 14.1059 62.635C14.337 62.8955 14.6667 63.1091 15.0606 63.2533C15.4545 63.3975 15.8981 63.4672 16.3451 63.4549H33.5697C34.602 63.433 35.6018 63.2046 36.4443 62.7984C37.2868 62.3922 37.9345 61.8261 38.3065 61.1709L57.0813 38.5939L45.3255 24.421V24.421ZM115.989 8.57903C116.212 8.30035 116.328 7.98832 116.328 7.67126C116.328 7.35421 116.212 7.04217 115.989 6.7635C115.735 6.51562 115.392 6.31573 114.993 6.18257C114.593 6.04941 114.151 5.98733 113.707 6.00215H96.138C95.1212 6.02167 94.1361 6.24652 93.3079 6.64806C92.4797 7.04959 91.8459 7.60965 91.4873 8.25692C91.4873 8.25692 54.0239 53.4402 52.732 54.9044L77.4493 85.7391C77.8522 86.3891 78.5206 86.947 79.3753 87.3466C80.2301 87.7463 81.2354 87.9709 82.2722 87.9939H99.4968C99.949 88.0198 100.403 87.9628 100.812 87.829C101.221 87.6951 101.57 87.4891 101.822 87.2325C102.056 86.9566 102.18 86.6435 102.18 86.3248C102.18 86.0061 102.056 85.693 101.822 85.417L77.3201 54.9629L115.989 8.57903Z" fill="#FFC700"/>
</g>
<defs>
<clipPath id="clip0_3_1606">
<rect width="105.87" height="94" fill="white" transform="translate(0.40918)"/>
</clipPath>
</defs>
</svg>
